<?xml version="1.0" encoding="UTF-8"?><svg id="a" xmlns="http://www.w3.org/2000/svg" width="531.5488" height="273.0321" viewBox="0 0 531.5488 273.0321"><path d="M247.9691,7.7158l18.628-7.7158-46.2921,111.7624,93.1373-38.5791-7.7158,18.6309-111.7653,46.292,30.8604-74.5092-55.8812,23.1474,7.7158-18.6252,55.8812-23.1474,15.4317-37.256h0ZM246.646,147.1479l80.9049-33.5122,38.579-93.1372-93.14,38.5791,7.7158-18.628,77.7056-32.1863-18.6253-7.7158-69.9926,28.9928-23.1475,55.8812,93.1463-38.6008-23.1565,55.9058-88.6177,36.7057,18.6279,7.7158h0Z" style="fill:#fff;"/><path d="M57.6367,249.3204v10.1567h13.3711v2.3638h-13.3711v10.9697h-2.7324v-25.8545h17.7285v2.3643h-14.9961,0Z" style="fill:#fff;"/><path d="M85.6719,246.9561h2.7324v25.8545h-2.7324v-25.8545h0Z" style="fill:#fff;"/><path d="M104.2129,246.9561h2.7324v23.4907h14.4785v2.3638h-17.2109v-25.8545h0Z" style="fill:#fff;"/><path d="M160.2051,246.9561v25.8545h-2.623v-20.6836l-10.1582,17.3965h-1.291l-10.1582-17.2856v20.5728h-2.6211v-25.8545h2.252l11.2285,19.1694,11.1172-19.1694h2.2539-.0001Z" style="fill:#fff;"/><path d="M209.2891,265.9039h-14.4043l-3.1016,6.9067h-2.8438l11.8184-25.8545h2.6953l11.8203,25.8545h-2.8809l-3.1035-6.9067h0ZM208.293,263.6876l-6.2051-13.8872-6.2051,13.8872h12.4102,0Z" style="fill:#fff;"/><path d="M248.5508,246.9561v25.8545h-2.252l-16.6211-20.979v20.979h-2.7324v-25.8545h2.252l16.6582,20.979v-20.979h2.6953Z" style="fill:#fff;"/><path d="M264.3594,246.9561h10.5254c2.7324,0,5.1465.5483,7.2402,1.6436,2.0918,1.0962,3.7168,2.6226,4.875,4.5801,1.1562,1.9575,1.7363,4.1924,1.7363,6.7036s-.5801,4.7461-1.7363,6.7036c-1.1582,1.9575-2.7832,3.4849-4.875,4.5801-2.0938,1.0957-4.5078,1.6436-7.2402,1.6436h-10.5254v-25.8545h0ZM274.7363,270.4469c2.2656,0,4.248-.4492,5.9473-1.3481,1.6992-.8984,3.0156-2.1421,3.9512-3.7305s1.4043-3.4165,1.4043-5.4849-.4688-3.8965-1.4043-5.4849c-.9355-1.5879-2.252-2.8311-3.9512-3.7305-1.6992-.8984-3.6816-1.3477-5.9473-1.3477h-7.6445v21.1265h7.6445Z" style="fill:#fff;"/><path d="M336.75,249.3204c1.8711,1.5757,2.8066,3.7427,2.8066,6.5005s-.9355,4.9185-2.8066,6.4819c-1.8711,1.564-4.457,2.3452-7.7559,2.3452h-6.9453v8.1626h-2.7324v-25.8545h9.6777c3.2988,0,5.8848.7886,7.7559,2.3643h0ZM334.793,260.567c1.3535-1.1206,2.0312-2.7021,2.0312-4.7461,0-2.0928-.6777-3.6992-2.0312-4.8203-1.3555-1.1201-3.3125-1.6802-5.873-1.6802h-6.8711v12.9268h6.8711c2.5605,0,4.5176-.5596,5.873-1.6802Z" style="fill:#fff;"/><path d="M374.8301,246.9561v25.8545h-2.6973v-11.9297h-16.1777v11.9297h-2.7324v-25.8545h2.7324v11.5239h16.1777v-11.5239h2.6973Z" style="fill:#fff;"/><path d="M394.9766,271.3145c-2.0801-1.1445-3.707-2.7144-4.875-4.709-1.1699-1.9946-1.7539-4.2349-1.7539-6.7222s.584-4.7275,1.7539-6.7222c1.168-1.9941,2.7949-3.564,4.875-4.709s4.4004-1.7173,6.9629-1.7173c2.5605,0,4.8691.5664,6.9238,1.6987,2.0566,1.1328,3.6758,2.7026,4.8574,4.709,1.1816,2.0073,1.7734,4.2539,1.7734,6.7407s-.5918,4.7339-1.7734,6.7407c-1.1816,2.0073-2.8008,3.5767-4.8574,4.709-2.0547,1.1328-4.3633,1.6992-6.9238,1.6992-2.5625,0-4.8828-.5728-6.9629-1.7178v.0002ZM407.4785,269.2096c1.6504-.9233,2.9434-2.2036,3.8789-3.8413.9355-1.6372,1.4023-3.4653,1.4023-5.4849s-.4668-3.8467-1.4023-5.4849c-.9355-1.6372-2.2285-2.9175-3.8789-3.8408-1.6484-.9238-3.4961-1.3853-5.5391-1.3853-2.0449,0-3.8965.4614-5.5586,1.3853-1.6621.9233-2.9688,2.2036-3.916,3.8408-.9473,1.6382-1.4219,3.4663-1.4219,5.4849s.4746,3.8477,1.4219,5.4849c.9473,1.6377,2.2539,2.918,3.916,3.8413s3.5137,1.3848,5.5586,1.3848c2.043,0,3.8906-.4614,5.5391-1.3848Z" style="fill:#fff;"/><path d="M434.0352,249.3204h-9.0859v-2.3643h20.9043v2.3643h-9.0859v23.4902h-2.7324v-23.4902h0Z" style="fill:#fff;"/><path d="M461.9395,271.3145c-2.082-1.1445-3.707-2.7144-4.877-4.709s-1.7539-4.2349-1.7539-6.7222.584-4.7275,1.7539-6.7222c1.1699-1.9941,2.7949-3.564,4.877-4.709,2.0801-1.145,4.4004-1.7173,6.9609-1.7173s4.8691.5664,6.9258,1.6987c2.0547,1.1328,3.6758,2.7026,4.8574,4.709,1.1816,2.0073,1.7715,4.2539,1.7715,6.7407s-.5898,4.7339-1.7715,6.7407c-1.1816,2.0073-2.8027,3.5767-4.8574,4.709-2.0566,1.1328-4.3652,1.6992-6.9258,1.6992s-4.8809-.5728-6.9609-1.7178v.0002ZM474.4414,269.2096c1.6484-.9233,2.9414-2.2036,3.877-3.8413.9355-1.6372,1.4043-3.4653,1.4043-5.4849s-.4688-3.8467-1.4043-5.4849c-.9355-1.6372-2.2285-2.9175-3.877-3.8408-1.6504-.9238-3.498-1.3853-5.541-1.3853s-3.8965.4614-5.5586,1.3853c-1.6621.9233-2.9668,2.2036-3.9141,3.8408-.9492,1.6382-1.4219,3.4663-1.4219,5.4849s.4727,3.8477,1.4219,5.4849c.9473,1.6377,2.252,2.918,3.9141,3.8413s3.5156,1.3848,5.5586,1.3848,3.8906-.4614,5.541-1.3848Z" style="fill:#fff;"/><path d="M34.6738,186.231h-13.3164v34.5566h-8.0391v-34.5566H0v-7.0991h34.6738v7.0991Z" style="fill:#fff;"/><path d="M42.7715,220.7877v-41.6558h18.4219c1.916,0,3.6855.3916,5.3086,1.1733,1.623.7827,3.0312,1.8389,4.2246,3.168,1.1934,1.3306,2.1133,2.8164,2.7578,4.459.6465,1.6431.9688,3.3252.9688,5.0459,0,1.7603-.3047,3.4521-.9102,5.0747-.6074,1.6235-1.4766,3.042-2.6113,4.2539-1.1348,1.2129-2.4629,2.1514-3.9883,2.8159l9.5039,15.665h-8.918l-8.5664-13.9634h-8.0957v13.9634h-8.0957ZM50.8672,199.7252h10.1504c1.0156,0,1.916-.3027,2.6992-.9097.7812-.606,1.4082-1.417,1.877-2.4346.4688-1.0166.7031-2.1509.7031-3.4028,0-1.3291-.2734-2.4937-.8203-3.4907-.5488-.9976-1.2422-1.7896-2.084-2.3765-.8398-.5864-1.75-.8799-2.7266-.8799h-9.7988v13.4941h0Z" style="fill:#fff;"/><path d="M113.6426,213.6886v7.0991h-28.9238v-41.6558h28.3965v7.0991h-20.2988v10.0327h17.541v6.5708h-17.541v10.854h20.8262-.0001Z" style="fill:#fff;"/><path d="M127.1973,179.1319l11.2637,32.0337,11.1465-32.0337h8.5078l-15.7812,41.6558h-7.8047l-15.8398-41.6558h8.5078,0Z" style="fill:#fff;"/><path d="M181.7012,221.0811c-3.0508,0-5.8184-.5869-8.3027-1.7603s-4.6152-2.7666-6.3945-4.7817c-1.7793-2.0137-3.1582-4.2827-4.1367-6.8057-.9766-2.5229-1.4668-5.1133-1.4668-7.7739,0-2.7764.5195-5.4268,1.5547-7.9497,1.0371-2.5225,2.4648-4.7715,4.2832-6.7471,1.8203-1.9746,3.9707-3.5396,6.4551-4.6934,2.4824-1.1533,5.2109-1.731,8.1836-1.731,3.0117,0,5.7598.6069,8.2441,1.8188,2.4824,1.2129,4.6055,2.8364,6.3652,4.8696,1.7598,2.0342,3.1289,4.3032,4.1074,6.8057.9766,2.5034,1.4668,5.085,1.4668,7.7446,0,2.7383-.5098,5.3682-1.5254,7.8911-1.0176,2.5229-2.4355,4.7725-4.2539,6.7471-1.8184,1.9756-3.9707,3.5303-6.4551,4.6641-2.4844,1.1353-5.1914,1.7017-8.125,1.7017h0ZM169.6152,199.9596c0,1.7998.2734,3.5405.8203,5.2217.5488,1.6821,1.3398,3.1782,2.377,4.4883,1.0352,1.311,2.3066,2.3472,3.8145,3.1099,1.5039.7627,3.2168,1.144,5.1328,1.144,1.9551,0,3.6973-.4009,5.2227-1.2031,1.5254-.8008,2.7949-1.8774,3.8125-3.2266,1.0176-1.3496,1.7891-2.8545,2.3184-4.5176.5273-1.6621.791-3.334.791-5.0166,0-1.7983-.2832-3.5293-.8496-5.1919-.5684-1.6621-1.3711-3.1484-2.4062-4.459-1.0371-1.3101-2.3086-2.3472-3.8145-3.1099s-3.1973-1.144-5.0742-1.144c-1.9941,0-3.7461.4019-5.25,1.2031-1.5078.8018-2.7676,1.8682-3.7852,3.1973-1.0176,1.3301-1.7891,2.8164-2.3184,4.459-.5273,1.6426-.791,3.3247-.791,5.0454h0Z" style="fill:#fff;"/><path d="M211.2129,220.7877v-41.6558h18.4219c1.916,0,3.6855.3916,5.3086,1.1733,1.623.7827,3.0312,1.8389,4.2246,3.168,1.1934,1.3306,2.1133,2.8164,2.7578,4.459.6465,1.6431.9688,3.3252.9688,5.0459,0,1.7603-.3047,3.4521-.9102,5.0747-.6074,1.6235-1.4766,3.042-2.6113,4.2539-1.1348,1.2129-2.4629,2.1514-3.9883,2.8159l9.5039,15.665h-8.918l-8.5664-13.9634h-8.0957v13.9634h-8.0957,0ZM219.3086,199.7252h10.1504c1.0156,0,1.916-.3027,2.6992-.9097.7812-.606,1.4082-1.417,1.877-2.4346.4688-1.0166.7031-2.1509.7031-3.4028,0-1.3291-.2734-2.4937-.8203-3.4907-.5488-.9976-1.2422-1.7896-2.084-2.3765-.8398-.5864-1.75-.8799-2.7266-.8799h-9.7988v13.4941h0Z" style="fill:#fff;"/><path d="M297.2793,220.7877l-19.5957-20.7983c-1.6426-1.7383-2.9629-3.2344-3.959-4.4902-.998-1.2559-1.7129-2.4058-2.1426-3.4487-.4316-1.0435-.6445-2.1636-.6445-3.3608,0-1.9702.498-3.6987,1.4961-5.186.9961-1.4868,2.3652-2.6362,4.1055-3.4478,1.7402-.811,3.6875-1.2173,5.8379-1.2173,1.9551,0,3.7637.3384,5.4277,1.0142,1.6621.6763,3.0215,1.6904,4.0781,3.0425,1.0547,1.3521,1.584,3.0322,1.584,5.041,0,1.8159-.4609,3.458-1.3789,4.9253-.9199,1.4678-2.1426,2.8198-3.668,4.0557-1.5254,1.2368-3.2461,2.4341-5.1621,3.5928-1.4082.8838-2.6895,1.749-3.8438,2.5942s-2.0527,1.7393-2.6973,2.6807c-.6465.9414-.9688,1.9688-.9688,3.0835,0,1.0767.3125,2.0747.9375,2.9971.627.9224,1.4961,1.6621,2.6113,2.2192,1.1152.5576,2.3555.8359,3.7266.8359,1.6816,0,3.3145-.4106,4.8984-1.2319s3.002-1.9849,4.2539-3.4907c1.25-1.5054,2.2383-3.3149,2.9629-5.4272.7227-2.1118,1.0859-4.478,1.0859-7.0991h6.3945c0,3.7168-.5684,7.0112-1.7012,9.8862-1.1348,2.8745-2.6602,5.3198-4.5762,7.3335-1.918,2.0151-4.0879,3.5498-6.5137,4.606-2.4258,1.0557-4.9473,1.584-7.5684,1.584-2.8555,0-5.3379-.5693-7.4512-1.709-2.1113-1.1392-3.7461-2.6362-4.8984-4.4907-1.1543-1.8545-1.7305-3.8633-1.7305-6.0269s.5078-4.0562,1.5254-5.6787c1.0156-1.623,2.3066-3.061,3.8711-4.3169s3.1289-2.3662,4.6953-3.3325c1.7207-1.0742,3.168-1.9854,4.3398-2.7334,1.1738-.748,2.0742-1.4971,2.6992-2.2451s.9395-1.564.9395-2.4468c0-1.0361-.3633-1.8711-1.0859-2.5044-.7246-.6328-1.6523-.9497-2.7871-.9497-.8594,0-1.6133.1729-2.2578.5186-.6465.3457-1.1445.8057-1.4961,1.3818-.3516.5757-.5293,1.228-.5293,1.957,0,.5381.166,1.0752.5,1.6123.332.5371.918,1.2388,1.7598,2.1021.8398.8638,2.0039,2.083,3.4902,3.6562l23.7617,24.9126h-10.3262l.0005-.0003Z" style="fill:#fff;"/><path d="M356.7109,190.0445c-.2734-.2729-.7715-.6455-1.4961-1.1147s-1.6035-.9185-2.6406-1.3496c-1.0352-.4297-2.1602-.811-3.373-1.144-1.2129-.3315-2.4453-.4985-3.6953-.4985-2.1914,0-3.8438.4087-4.959,1.2266-1.1133.8179-1.6719,1.9653-1.6719,3.4434,0,1.1294.3535,2.0239,1.0566,2.686.7031.6616,1.7598,1.2256,3.168,1.6929,1.4082.4678,3.168.9727,5.2812,1.5171,2.7363.6621,5.1133,1.4697,7.127,2.4233,2.0156.9531,3.5586,2.1992,4.6348,3.7363,1.0762,1.5376,1.6152,3.5708,1.6152,6.1001,0,2.2183-.4121,4.1157-1.2324,5.6919-.8223,1.5767-1.957,2.8506-3.4043,3.8232-1.4473.9736-3.0898,1.6841-4.9277,2.1313-1.8379.4468-3.7949.6714-5.8672.6714s-4.1465-.2153-6.2188-.6455c-2.0742-.4297-4.0684-1.0459-5.9844-1.8481-1.916-.8013-3.6758-1.769-5.2793-2.9043l3.5781-6.9814c.3516.3521.9766.812,1.877,1.3784.9004.5679,1.9961,1.1353,3.2852,1.7017,1.291.5674,2.6992,1.0469,4.2246,1.4375,1.5254.3911,3.0703.5864,4.6348.5864,2.1914,0,3.8535-.3667,4.9883-1.1016,1.1328-.7354,1.7012-1.7793,1.7012-3.1333,0-1.2461-.4512-2.2197-1.3496-2.9209-.9004-.7012-2.1523-1.3145-3.7559-1.8408s-3.5-1.1001-5.6895-1.7231c-2.6211-.7402-4.8125-1.5679-6.5723-2.4834-1.7598-.915-3.0703-2.0737-3.9297-3.4766-.8613-1.4014-1.291-3.1543-1.291-5.2583,0-2.8438.6738-5.229,2.0234-7.1567s3.1777-3.3882,5.4863-4.3818c2.3066-.9937,4.8691-1.4907,7.6855-1.4907,1.9551,0,3.8027.2153,5.5449.6455,1.7383.4307,3.373.9971,4.8984,1.7012s2.8945,1.4668,4.1074,2.2881l-3.5801,6.5713.0002-.0003Z" style="fill:#fff;"/><path d="M381.1777,179.1319h8.2129l15.3125,41.6558h-8.3301l-3.4609-10.3848h-15.2949l-3.4805,10.3848h-8.332l15.373-41.6558h0ZM391.0137,204.712l-5.7305-17.1904-5.7598,17.1904h11.4903Z" style="fill:#fff;"/><path d="M412.2129,220.7877v-41.6558h18.4219c1.916,0,3.6875.3916,5.3105,1.1733,1.623.7827,3.0312,1.8389,4.2246,3.168,1.1914,1.3306,2.1113,2.8164,2.7578,4.459.6445,1.6431.9668,3.3252.9668,5.0459,0,1.7603-.3027,3.4521-.9082,5.0747-.6074,1.6235-1.4766,3.042-2.6113,4.2539-1.1348,1.2129-2.4648,2.1514-3.9902,2.8159l9.5059,15.665h-8.918l-8.5664-13.9634h-8.0957v13.9634h-8.0977ZM420.3105,199.7252h10.1484c1.0176,0,1.916-.3027,2.6992-.9097.7812-.606,1.4082-1.417,1.877-2.4346.4707-1.0166.7051-2.1509.7051-3.4028,0-1.3291-.2754-2.4937-.8223-3.4907-.5469-.9976-1.2422-1.7896-2.082-2.3765-.8418-.5864-1.752-.8799-2.7285-.8799h-9.7969v13.4941h0Z" style="fill:#fff;"/><path d="M465.4863,179.1319h8.2129l15.3125,41.6558h-8.3301l-3.4609-10.3848h-15.2949l-3.4805,10.3848h-8.332l15.373-41.6558h0ZM475.3223,204.712l-5.7305-17.1904-5.7598,17.1904h11.4903Z" style="fill:#fff;"/><path d="M531.5488,179.1319v41.6558h-8.0391v-17.7769h-18.8906v17.7769h-8.0977v-41.6558h8.0977v16.8384h18.8906v-16.8384h8.0391Z" style="fill:#fff;"/></svg>