<?xml version="1.0" encoding="UTF-8"?><svg id="b" xmlns="http://www.w3.org/2000/svg" width="636.4811" height="546.4423" viewBox="0 0 636.4811 546.4423"><g id="c"><path d="M448.1228,447.6906l170.5269,88.9701c7.6612,3.9972,16.8314-1.5604,16.8314-10.2032v-258.2358c0-8.6408-9.1702-14.2005-16.8314-10.2013l-170.5269,88.9701c-3.8009,1.9828-6.1842,5.9146-6.1842,10.2013v80.2956c0,4.2867,2.3833,8.2185,6.1842,10.2032Z" style="fill:none; stroke:#d4a93e; stroke-linejoin:round; stroke-width:2px;"/><path d="M306.459,125.1184c0,68.5497-55.5704,124.1204-124.1184,124.1204s-124.1204-55.5706-124.1204-124.1204S113.7909,1,182.3407,1s124.1184,55.5687,124.1184,124.1184Z" style="fill:none; stroke:#d4a93e; stroke-linejoin:round; stroke-width:2px;"/><path d="M301.411,168.6656c0,42.4071,34.377,76.7861,76.7861,76.7861s76.7841-34.379,76.7841-76.7861-34.377-76.7861-76.7841-76.7861-76.7861,34.379-76.7861,76.7861Z" style="fill:none; stroke:#d4a93e; stroke-linejoin:round; stroke-width:2px;"/><path d="M58.2203,372.0961v154.2007c0,10.574,8.5714,19.1455,19.1435,19.1455h345.4314c10.572,0,19.1435-8.5714,19.1435-19.1455v-257.9146c0-10.574-8.5714-19.1435-19.1435-19.1435H77.3638c-10.572,0-19.1435,8.5695-19.1435,19.1435v41.4435" style="fill:none; stroke:#d4a93e; stroke-linejoin:round; stroke-width:2px;"/><path d="M58.2203,309.8258H13.6222c-6.9714,0-12.6222,5.6508-12.6222,12.6222v37.0259c0,6.9694,5.6508,12.6222,12.6222,12.6222h44.5981" style="fill:none; stroke:#d4a93e; stroke-linejoin:round; stroke-width:2px;"/><path d="M58.2203,372.0961h95.0889c6.9714,0,12.6222-5.6528,12.6222-12.6222v-37.0259c0-6.9714-5.6508-12.6222-12.6222-12.6222H58.2203" style="fill:none; stroke:#d4a93e; stroke-linejoin:round; stroke-width:2px;"/></g></svg>