<?xml version="1.0" encoding="UTF-8"?>
<svg id="a" xmlns="http://www.w3.org/2000/svg" viewBox="0 0 508.9445 508.9507">
  <defs>
    <style>
      .cls-1 {
        fill: none;
        stroke: #d4a93e;
        stroke-linejoin: round;
        stroke-width: 2px;
      }
    </style>
  </defs>
  <g>
    <path class="cls-1" d="M268.4331,367.2912l-47.6585,47.6585c-29.4107,29.4107-74.1726,34.1135-108.4907,14.1053l-78.8957,78.8957L1,475.5626l78.8957-78.8957c-20.0082-34.3181-15.3085-79.0831,14.1022-108.4938l47.6585-47.6585,126.7766,126.7766Z"/>
    <g>
      <path class="cls-1" d="M165.7176,264.5757l53.3491-53.3491c6.1319-6.1319,16.075-6.1319,22.2069,0,3.069,3.069,4.602,7.0878,4.602,11.1065s-1.533,8.0375-4.599,11.1035l-53.3491,53.3491"/>
      <path class="cls-1" d="M222.1663,321.0244l53.3491-53.3491c6.1319-6.1319,16.075-6.1319,22.2069,0,3.066,3.066,4.599,7.0847,4.599,11.1035s-1.533,8.0375-4.599,11.1035l-53.3491,53.3491"/>
    </g>
  </g>
  <path class="cls-1" d="M240.5114,141.6595l47.6585-47.6585c29.4107-29.4107,74.1726-34.1135,108.4907-14.1053L475.5564,1l32.3881,32.3881-78.8957,78.8957c20.0082,34.3181,15.3085,79.0831-14.1022,108.4938l-47.6585,47.6585-126.7766-126.7766Z"/>
</svg>