<?xml version="1.0" encoding="UTF-8"?><svg id="a" xmlns="http://www.w3.org/2000/svg" width="560.5252" height="533.2691" viewBox="0 0 560.5252 533.2691"><path d="M124.8808,109.1305V1L1,124.8809h108.1305c8.7131,0,15.7505-7.0374,15.7505-15.7504h-.0002Z" style="fill:none; stroke:#d4a93e; stroke-linejoin:round; stroke-width:2px;"/><path d="M400.2337,344.493v172.0257c0,8.713-7.0374,15.7504-15.7505,15.7504H16.8618c-8.713,0-15.7505-7.0374-15.7505-15.7504V124.8809L124.992,1h259.6024c8.7131,0,15.7505,7.0374,15.7505,15.7504v252.6768" style="fill:none; stroke:#d4a93e; stroke-linejoin:round; stroke-width:2px;"/><line x1="86.1192" y1="186.0952" x2="315.1145" y2="186.0952" style="fill:none; stroke:#d4a93e; stroke-linejoin:round; stroke-width:2px;"/><line x1="86.1192" y1="241.836" x2="315.1145" y2="241.836" style="fill:none; stroke:#d4a93e; stroke-linejoin:round; stroke-width:2px;"/><line x1="86.1192" y1="297.5768" x2="315.1145" y2="297.5768" style="fill:none; stroke:#d4a93e; stroke-linejoin:round; stroke-width:2px;"/><line x1="86.1192" y1="353.4294" x2="281.3796" y2="353.4294" style="fill:none; stroke:#d4a93e; stroke-linejoin:round; stroke-width:2px;"/><line x1="168.3341" y1="130.3544" x2="315.1145" y2="130.3544" style="fill:none; stroke:#d4a93e; stroke-linejoin:round; stroke-width:2px;"/><path d="M330.3064,414.4203l-56.9696,28.9316c-3.6863,1.7873-7.4841-2.0107-5.697-5.697l28.9315-56.9696,97.7419-97.7419,33.7348,33.7349-97.7419,97.7419h.0002Z" style="fill:none; stroke:#d4a93e; stroke-linejoin:round; stroke-width:2px;"/><line x1="330.3064" y1="414.4203" x2="296.4598" y2="380.6854" style="fill:none; stroke:#d4a93e; stroke-linejoin:round; stroke-width:2px;"/><path d="M528.5828,154.0359l28.2615,28.2614c3.5744,3.5746,3.5744,9.4949,0,13.0695l-124.9978,124.9979-41.3309-41.3309,124.9978-124.9979c3.5744-3.5746,9.4949-3.5746,13.0694,0h0Z" style="fill:none; stroke:#d4a93e; stroke-linejoin:round; stroke-width:2px;"/><polyline points="503.2259 166.3234 557.7377 220.7238 460.1077 318.354" style="fill:none; stroke:#d4a93e; stroke-linejoin:round; stroke-width:2px;"/><path d="M78.2999,452.9585c20.8887-9.9417,41.8894-19.8835,62.7781-29.9369-.2233,6.9257-.4467,13.9631-.5585,21.0005,17.3143,6.1438,36.7508-2.5692,54.8473,1.2288,9.3831,2.0107,17.761,7.2608,26.5858,10.9471,8.8247,3.6862,19.3251,5.8087,27.8146,1.3405" style="fill:none; stroke:#d4a93e; stroke-linejoin:round; stroke-width:2px;"/></svg>