<?xml version="1.0" encoding="UTF-8"?><svg id="a" xmlns="http://www.w3.org/2000/svg" width="741.2448" height="130.6213" viewBox="0 0 741.2448 130.6213"><path d="M70.1528,6.8492L86.6886,0l-41.0929,99.2101,82.6768-34.2461-6.8492,16.5384L22.2106,122.5951l27.3944-66.1409L0,77.002l6.8492-16.5333,49.605-20.5477,13.6985-33.0717ZM68.9783,130.6213l71.8183-29.7483,34.2461-82.6768-82.6792,34.2461,6.8492-16.5358L168.1909,7.3352,151.6575.486l-62.1315,25.7365-20.5477,49.605,82.6848-34.2655-20.5557,49.6269-78.6648,32.5832,16.5357,6.8492Z" style="fill:#fff;"/><path d="M225.525,86.7275v10.1567h13.3711v2.3638h-13.3711v10.9697h-2.7324v-25.8545h17.7285v2.3643h-14.9961Z" style="fill:#fff;"/><path d="M253.5592,84.3633h2.7324v25.8545h-2.7324v-25.8545Z" style="fill:#fff;"/><path d="M272.1002,84.3633h2.7324v23.4907h14.4785v2.3638h-17.2109v-25.8545Z" style="fill:#fff;"/><path d="M328.0924,84.3633v25.8545h-2.623v-20.6836l-10.1572,17.3965h-1.292l-10.1572-17.2856v20.5728h-2.6221v-25.8545h2.2529l11.2275,19.1694,11.1172-19.1694h2.2539Z" style="fill:#fff;"/><path d="M377.1774,103.311h-14.4043l-3.1025,6.9067h-2.8438l11.8184-25.8545h2.6963l11.8193,25.8545h-2.8809l-3.1025-6.9067ZM376.1803,101.0947l-6.2051-13.8872-6.2051,13.8872h12.4102Z" style="fill:#fff;"/><path d="M416.4391,84.3633v25.8545h-2.2529l-16.6211-20.979v20.979h-2.7324v-25.8545h2.2529l16.6572,20.979v-20.979h2.6963Z" style="fill:#fff;"/><path d="M432.2467,84.3633h10.5264c2.7324,0,5.1455.5483,7.2393,1.6436,2.0918,1.0962,3.7178,2.6226,4.875,4.5801s1.7363,4.1924,1.7363,6.7036-.5791,4.7461-1.7363,6.7036-2.7832,3.4849-4.875,4.5801c-2.0938,1.0957-4.5068,1.6436-7.2393,1.6436h-10.5264v-25.8545ZM442.6246,107.854c2.2656,0,4.248-.4492,5.9473-1.3481,1.6982-.8984,3.0156-2.1421,3.9512-3.7305s1.4043-3.4165,1.4043-5.4849-.4688-3.8965-1.4043-5.4849c-.9355-1.5879-2.2529-2.8311-3.9512-3.7305-1.6992-.8984-3.6816-1.3477-5.9473-1.3477h-7.6455v21.1265h7.6455Z" style="fill:#fff;"/><path d="M504.6373,86.7275c1.8711,1.5757,2.8076,3.7427,2.8076,6.5005s-.9365,4.9185-2.8076,6.4819c-1.8711,1.564-4.457,2.3452-7.7559,2.3452h-6.9443v8.1626h-2.7324v-25.8545h9.6768c3.2988,0,5.8848.7886,7.7559,2.3643ZM502.6803,97.9741c1.3535-1.1206,2.0312-2.7021,2.0312-4.7461,0-2.0928-.6777-3.6997-2.0312-4.8203-1.3545-1.1201-3.3125-1.6802-5.873-1.6802h-6.8701v12.9268h6.8701c2.5605,0,4.5186-.5596,5.873-1.6802Z" style="fill:#fff;"/><path d="M542.7174,84.3633v25.8545h-2.6963v-11.9297h-16.1777v11.9297h-2.7324v-25.8545h2.7324v11.5239h16.1777v-11.5239h2.6963Z" style="fill:#fff;"/><path d="M562.8649,108.7217c-2.0811-1.1445-3.707-2.7144-4.876-4.709-1.1699-1.9946-1.7539-4.2349-1.7539-6.7222s.584-4.7275,1.7539-6.7222c1.1689-1.9941,2.7949-3.564,4.876-4.709,2.0801-1.145,4.4004-1.7173,6.9619-1.7173s4.8691.5664,6.9248,1.6987c2.0557,1.1328,3.6758,2.7026,4.8574,4.709,1.1816,2.0073,1.7725,4.2539,1.7725,6.7407s-.5908,4.7339-1.7725,6.7407c-1.1816,2.0073-2.8018,3.5767-4.8574,4.709-2.0557,1.1328-4.3643,1.6992-6.9248,1.6992s-4.8818-.5728-6.9619-1.7178ZM575.3668,106.6167c1.6494-.9233,2.9424-2.2036,3.8779-3.8413.9355-1.6372,1.4033-3.4653,1.4033-5.4849s-.4678-3.8467-1.4033-5.4849c-.9355-1.6372-2.2285-2.9175-3.8779-3.8408-1.6494-.9238-3.4971-1.3853-5.54-1.3853s-3.8965.4614-5.5586,1.3853c-1.6621.9233-2.9678,2.2036-3.915,3.8408-.9482,1.6382-1.4219,3.4663-1.4219,5.4849s.4736,3.8477,1.4219,5.4849c.9473,1.6377,2.2529,2.918,3.915,3.8413s3.5146,1.3848,5.5586,1.3848,3.8906-.4614,5.54-1.3848Z" style="fill:#fff;"/><path d="M601.9225,86.7275h-9.0859v-2.3643h20.9053v2.3643h-9.0859v23.4902h-2.7334v-23.4902Z" style="fill:#fff;"/><path d="M629.8268,108.7217c-2.0811-1.1445-3.707-2.7144-4.876-4.709-1.1699-1.9946-1.7539-4.2349-1.7539-6.7222s.584-4.7275,1.7539-6.7222c1.1689-1.9941,2.7949-3.564,4.876-4.709,2.0801-1.145,4.4004-1.7173,6.9619-1.7173s4.8691.5664,6.9248,1.6987c2.0557,1.1328,3.6758,2.7026,4.8574,4.709,1.1816,2.0073,1.7725,4.2539,1.7725,6.7407s-.5908,4.7339-1.7725,6.7407c-1.1816,2.0073-2.8018,3.5767-4.8574,4.709-2.0557,1.1328-4.3643,1.6992-6.9248,1.6992s-4.8818-.5728-6.9619-1.7178ZM642.3287,106.6167c1.6494-.9233,2.9424-2.2036,3.8779-3.8413.9355-1.6372,1.4033-3.4653,1.4033-5.4849s-.4678-3.8467-1.4033-5.4849c-.9355-1.6372-2.2285-2.9175-3.8779-3.8408-1.6494-.9238-3.4971-1.3853-5.54-1.3853s-3.8965.4614-5.5586,1.3853c-1.6621.9233-2.9678,2.2036-3.915,3.8408-.9482,1.6382-1.4219,3.4663-1.4219,5.4849s.4736,3.8477,1.4219,5.4849c.9473,1.6377,2.2529,2.918,3.915,3.8413s3.5146,1.3848,5.5586,1.3848,3.8906-.4614,5.54-1.3848Z" style="fill:#fff;"/><path d="M244.3707,30.7544h-13.3174v34.5566h-8.0381V30.7544h-13.3184v-7.0996h34.6738v7.0996Z" style="fill:#fff;"/><path d="M252.4674,65.311V23.6548h18.4219c1.916,0,3.6865.3916,5.3096,1.1738s3.0312,1.8389,4.2246,3.168c1.1924,1.3301,2.1123,2.8164,2.7578,4.459s.9678,3.3252.9678,5.0459c0,1.7598-.3037,3.4521-.9092,5.0742-.6074,1.624-1.4766,3.042-2.6113,4.2539-1.1348,1.2129-2.4639,2.1514-3.9893,2.8164l9.5049,15.665h-8.918l-8.5664-13.9639h-8.0957v13.9639h-8.0967ZM260.5641,44.2485h10.1494c1.0166,0,1.916-.3027,2.6992-.9102.7812-.6055,1.4082-1.417,1.877-2.4346.4697-1.0166.7041-2.1504.7041-3.4023,0-1.3291-.2744-2.4941-.8213-3.4912-.5479-.9971-1.2422-1.7891-2.083-2.376s-1.751-.8799-2.7275-.8799h-9.7979v13.4941Z" style="fill:#fff;"/><path d="M323.3395,58.2114v7.0996h-28.9238V23.6548h28.3965v7.0996h-20.2998v10.0322h17.542v6.5713h-17.542v10.8535h20.8271Z" style="fill:#fff;"/><path d="M336.8932,23.6548l11.2646,32.0342,11.1465-32.0342h8.5078l-15.7822,41.6562h-7.8037l-15.8408-41.6562h8.5078Z" style="fill:#fff;"/><path d="M391.3981,65.604c-3.0518,0-5.8193-.5869-8.3027-1.7598-2.4844-1.1738-4.6152-2.7666-6.3945-4.7822-1.7803-2.0137-3.1592-4.2822-4.1367-6.8057-.9775-2.5225-1.4668-5.1133-1.4668-7.7734,0-2.7764.5186-5.4268,1.5547-7.9502,1.0361-2.5225,2.4648-4.7715,4.2832-6.7471,1.8193-1.9746,3.9697-3.5391,6.4541-4.6934,2.4834-1.1533,5.2109-1.7305,8.1846-1.7305,3.0107,0,5.7588.6064,8.2432,1.8184,2.4834,1.2129,4.6055,2.8369,6.3652,4.8701,1.7607,2.0342,3.1289,4.3027,4.1074,6.8057.9766,2.5029,1.4668,5.085,1.4668,7.7441,0,2.7383-.5088,5.3682-1.5254,7.8916-1.0176,2.5225-2.4355,4.7725-4.2539,6.7471-1.8184,1.9756-3.9707,3.5303-6.4541,4.6641-2.4844,1.1348-5.1924,1.7012-8.125,1.7012ZM379.3112,44.4829c0,1.7998.2734,3.54.8213,5.2217s1.3398,3.1777,2.377,4.4883c1.0352,1.3105,2.3066,2.3467,3.8135,3.1094,1.5049.7627,3.2168,1.1445,5.1338,1.1445,1.9551,0,3.6963-.4014,5.2217-1.2031,1.5254-.8008,2.7959-1.8779,3.8135-3.2266,1.0166-1.3496,1.7891-2.8545,2.3174-4.5176.5273-1.6621.792-3.334.792-5.0166,0-1.7988-.2842-3.5293-.8506-5.1924-.5674-1.6621-1.3701-3.1484-2.4062-4.459-1.0361-1.3096-2.3076-2.3467-3.8135-3.1094s-3.1973-1.1445-5.0742-1.1445c-1.9951,0-3.7461.4023-5.251,1.2031-1.5068.8018-2.7676,1.8682-3.7842,3.1973-1.0176,1.3301-1.79,2.8164-2.3184,4.459-.5273,1.6426-.792,3.3252-.792,5.0459Z" style="fill:#fff;"/><path d="M420.9088,65.311V23.6548h18.4219c1.916,0,3.6865.3916,5.3096,1.1738s3.0312,1.8389,4.2246,3.168c1.1924,1.3301,2.1123,2.8164,2.7578,4.459s.9678,3.3252.9678,5.0459c0,1.7598-.3037,3.4521-.9092,5.0742-.6074,1.624-1.4766,3.042-2.6113,4.2539-1.1348,1.2129-2.4639,2.1514-3.9893,2.8164l9.5049,15.665h-8.918l-8.5664-13.9639h-8.0957v13.9639h-8.0967ZM429.0055,44.2485h10.1494c1.0166,0,1.916-.3027,2.6992-.9102.7812-.6055,1.4082-1.417,1.877-2.4346.4697-1.0166.7041-2.1504.7041-3.4023,0-1.3291-.2744-2.4941-.8213-3.4912-.5479-.9971-1.2422-1.7891-2.083-2.376s-1.751-.8799-2.7275-.8799h-9.7979v13.4941Z" style="fill:#fff;"/><path d="M506.9762,65.311l-19.5957-20.7988c-1.6426-1.7383-2.9629-3.2344-3.96-4.4902-.998-1.2559-1.7119-2.4053-2.1416-3.4482-.4316-1.0439-.6455-2.1641-.6455-3.3613,0-1.9697.498-3.6982,1.4961-5.1855.9971-1.4873,2.3662-2.6367,4.1064-3.4482,1.7402-.8105,3.6865-1.2168,5.8379-1.2168,1.9551,0,3.7637.3379,5.4268,1.0137,1.6621.6768,3.0215,1.6904,4.0781,3.043,1.0557,1.3516,1.584,3.0322,1.584,5.041,0,1.8154-.46,3.458-1.3789,4.9248-.9199,1.4678-2.1416,2.8203-3.667,4.0557-1.5254,1.2373-3.2471,2.4346-5.1631,3.5928-1.4082.8838-2.6895,1.749-3.8428,2.5947-1.1543.8447-2.0537,1.7393-2.6982,2.6807-.6455.9414-.9688,1.9688-.9688,3.083,0,1.0771.3125,2.0752.9385,2.9971.626.9229,1.4961,1.6621,2.6113,2.2197,1.1143.5576,2.3555.8359,3.7256.8359,1.6816,0,3.3145-.4111,4.8984-1.2324,1.585-.8213,3.002-1.9844,4.2539-3.4902,1.251-1.5059,2.2383-3.3154,2.9629-5.4277.7236-2.1113,1.0859-4.4775,1.0859-7.0986h6.3945c0,3.7168-.5674,7.0107-1.7012,9.8857-1.1348,2.875-2.6602,5.3203-4.5762,7.334-1.917,2.0146-4.0879,3.5498-6.5127,4.6055-2.4258,1.0557-4.9482,1.584-7.5684,1.584-2.8555,0-5.3389-.5693-7.4512-1.709-2.1123-1.1387-3.7461-2.6357-4.8994-4.4902s-1.7305-3.8633-1.7305-6.0273.5078-4.0557,1.5254-5.6787c1.0166-1.623,2.3076-3.0605,3.8721-4.3164s3.1289-2.3662,4.6943-3.333c1.7207-1.0742,3.168-1.9854,4.3408-2.7334,1.1738-.748,2.0732-1.4971,2.6992-2.2451.625-.748.9385-1.5635.9385-2.4463,0-1.0361-.3623-1.8711-1.085-2.5049-.7246-.6328-1.6533-.9492-2.7871-.9492-.8604,0-1.6133.1729-2.2588.5186s-1.1436.8057-1.4961,1.3818c-.3516.5752-.5283,1.2275-.5283,1.957,0,.5381.166,1.0752.499,1.6123.332.5371.9189,1.2383,1.7598,2.1016.8408.8643,2.0039,2.083,3.4912,3.6562l23.7617,24.9131h-10.3262Z" style="fill:#fff;"/><path d="M566.4079,34.5679c-.2744-.2734-.7725-.6455-1.4961-1.1152-.7246-.4688-1.6045-.918-2.6406-1.3496-1.0361-.4297-2.1611-.8105-3.373-1.1436-1.2129-.332-2.4453-.499-3.6963-.499-2.1914,0-3.8428.4092-4.958,1.2266-1.1143.8184-1.6719,1.9658-1.6719,3.4434,0,1.1299.3525,2.0244,1.0566,2.6865.7031.6611,1.7598,1.2256,3.168,1.6924,1.4082.4678,3.168.9727,5.2803,1.5176,2.7373.6621,5.1133,1.4697,7.1279,2.4229s3.5586,2.1992,4.6348,3.7363c1.0762,1.5381,1.6143,3.5713,1.6143,6.1006,0,2.2178-.4111,4.1152-1.2324,5.6914-.8213,1.5771-1.9561,2.8506-3.4033,3.8232-1.4473.9736-3.0898,1.6846-4.9277,2.1318-1.8389.4463-3.7949.6709-5.8672.6709s-4.1465-.2148-6.2188-.6455c-2.0742-.4297-4.0684-1.0459-5.9844-1.8477-1.917-.8018-3.6768-1.7695-5.2803-2.9043l3.5781-6.9814c.3525.3516.9775.8115,1.8779,1.3779.8994.5684,1.9951,1.1357,3.2852,1.7021,1.291.5674,2.6992,1.0469,4.2246,1.4375s3.0703.5859,4.6348.5859c2.1904,0,3.8525-.3662,4.9873-1.1016,1.1338-.7354,1.7012-1.7793,1.7012-3.1328,0-1.2461-.4502-2.2197-1.3496-2.9209-.9004-.7012-2.1514-1.3145-3.7549-1.8408s-3.501-1.1006-5.6904-1.7236c-2.6211-.7402-4.8115-1.5674-6.5713-2.4834-1.7598-.915-3.0713-2.0732-3.9307-3.4766-.8613-1.4014-1.291-3.1543-1.291-5.2578,0-2.8438.6748-5.2295,2.0244-7.1572,1.3486-1.9277,3.1768-3.3877,5.4854-4.3818,2.3076-.9932,4.8701-1.4902,7.6855-1.4902,1.9561,0,3.8037.2148,5.5449.6455,1.7393.4307,3.373.9971,4.8984,1.7012s2.8945,1.4668,4.1074,2.2881l-3.5791,6.5713Z" style="fill:#fff;"/><path d="M590.8737,23.6548h8.2139l15.3125,41.6562h-8.3311l-3.4609-10.3848h-15.2949l-3.4795,10.3848h-8.332l15.3721-41.6562ZM600.7106,49.2349l-5.7305-17.1904-5.7598,17.1904h11.4902Z" style="fill:#fff;"/><path d="M621.9098,65.311V23.6548h18.4219c1.916,0,3.6865.3916,5.3096,1.1738s3.0312,1.8389,4.2246,3.168c1.1924,1.3301,2.1123,2.8164,2.7578,4.459s.9678,3.3252.9678,5.0459c0,1.7598-.3037,3.4521-.9092,5.0742-.6074,1.624-1.4766,3.042-2.6113,4.2539-1.1348,1.2129-2.4639,2.1514-3.9893,2.8164l9.5049,15.665h-8.918l-8.5664-13.9639h-8.0957v13.9639h-8.0967ZM630.0065,44.2485h10.1494c1.0166,0,1.916-.3027,2.6992-.9102.7812-.6055,1.4082-1.417,1.877-2.4346.4697-1.0166.7041-2.1504.7041-3.4023,0-1.3291-.2744-2.4941-.8213-3.4912-.5479-.9971-1.2422-1.7891-2.083-2.376s-1.751-.8799-2.7275-.8799h-9.7979v13.4941Z" style="fill:#fff;"/><path d="M675.1823,23.6548h8.2139l15.3125,41.6562h-8.3311l-3.4609-10.3848h-15.2949l-3.4795,10.3848h-8.332l15.3721-41.6562ZM685.0192,49.2349l-5.7305-17.1904-5.7598,17.1904h11.4902Z" style="fill:#fff;"/><path d="M741.2448,23.6548v41.6562h-8.0381v-17.7773h-18.8916v17.7773h-8.0967V23.6548h8.0967v16.8389h18.8916v-16.8389h8.0381Z" style="fill:#fff;"/></svg>